<svg width="20" height="20" viewBox="0 0 20 20" fill="none" xmlns="http://www.w3.org/2000/svg">
<g clip-path="url(#clip0_4175_299524)">
<path fill-rule="evenodd" clip-rule="evenodd" d="M15.6568 15.6569C18.7811 12.5326 18.7811 7.46736 15.6568 4.34315C12.5326 1.21895 7.46734 1.21894 4.34313 4.34315C1.21894 7.46734 1.21894 12.5327 4.34313 15.6569C7.46734 18.7811 12.5326 18.781 15.6568 15.6569ZM7.17156 9C6.61927 9 6.17156 9.44771 6.17156 10C6.17156 10.5523 6.61927 11 7.17156 11L8.99999 11L8.99999 12.8284C8.99998 13.3807 9.44772 13.8284 9.99998 13.8284C10.5523 13.8284 11 13.3807 11 12.8284L11 11H12.8284C13.3807 11 13.8284 10.5523 13.8284 10C13.8284 9.44775 13.3807 9.00001 12.8284 9.00001H11L11 7.17158C11 6.61931 10.5523 6.1716 9.99998 6.17158C9.44772 6.17156 8.99998 6.6193 8.99999 7.17157L8.99999 9L7.17156 9Z" fill="#94A3B8"/>
</g>
<defs>
<clipPath id="clip0_4175_299524">
<rect width="20" height="20" fill="white"/>
</clipPath>
</defs>
</svg>
