<svg width="20" height="20" viewBox="0 0 20 20" fill="none" xmlns="http://www.w3.org/2000/svg">
<path d="M10 16.6666L9.29289 17.3737C9.68342 17.7642 10.3166 17.7642 10.7071 17.3737L10 16.6666ZM6.66667 13.3333L7.37377 12.6261C7.18624 12.4386 6.93188 12.3333 6.66667 12.3333V13.3333ZM13.3333 13.3333V12.3333C13.0681 12.3333 12.8138 12.4386 12.6262 12.6261L13.3333 13.3333ZM5.83333 5.66658C5.28105 5.66658 4.83333 6.1143 4.83333 6.66658C4.83333 7.21887 5.28105 7.66658 5.83333 7.66658V5.66658ZM14.1667 7.66658C14.719 7.66658 15.1667 7.21887 15.1667 6.66658C15.1667 6.1143 14.719 5.66658 14.1667 5.66658V7.66658ZM5.83333 8.99992C5.28105 8.99992 4.83333 9.44763 4.83333 9.99992C4.83333 10.5522 5.28105 10.9999 5.83333 10.9999V8.99992ZM9.16667 10.9999C9.71895 10.9999 10.1667 10.5522 10.1667 9.99992C10.1667 9.44763 9.71895 8.99992 9.16667 8.99992V10.9999ZM4.16667 4.33325H15.8333V2.33325H4.16667V4.33325ZM16.5 4.99992V11.6666H18.5V4.99992H16.5ZM3.5 11.6666V4.99992H1.5V11.6666H3.5ZM10.7071 15.9595L7.37377 12.6261L5.95956 14.0404L9.29289 17.3737L10.7071 15.9595ZM6.66667 12.3333H4.16667V14.3333H6.66667V12.3333ZM15.8333 12.3333H13.3333V14.3333H15.8333V12.3333ZM12.6262 12.6261L9.29289 15.9595L10.7071 17.3737L14.0404 14.0404L12.6262 12.6261ZM1.5 11.6666C1.5 13.1393 2.69391 14.3333 4.16667 14.3333V12.3333C3.79848 12.3333 3.5 12.0348 3.5 11.6666H1.5ZM16.5 11.6666C16.5 12.0348 16.2015 12.3333 15.8333 12.3333V14.3333C17.3061 14.3333 18.5 13.1393 18.5 11.6666H16.5ZM15.8333 4.33325C16.2015 4.33325 16.5 4.63173 16.5 4.99992H18.5C18.5 3.52716 17.3061 2.33325 15.8333 2.33325V4.33325ZM4.16667 2.33325C2.69391 2.33325 1.5 3.52716 1.5 4.99992H3.5C3.5 4.63173 3.79848 4.33325 4.16667 4.33325V2.33325ZM5.83333 7.66658H14.1667V5.66658H5.83333V7.66658ZM5.83333 10.9999H9.16667V8.99992H5.83333V10.9999Z" fill="#94A3B8"/>
</svg>
