<svg width="20" height="20" viewBox="0 0 20 20" fill="none" xmlns="http://www.w3.org/2000/svg">
<path d="M17.5 17.5V18.5C18.0523 18.5 18.5 18.0523 18.5 17.5H17.5ZM2.5 17.5H1.5C1.5 18.0523 1.94772 18.5 2.5 18.5V17.5ZM15 10V11C15.5523 11 16 10.5523 16 10H15ZM5 10H4C4 10.5523 4.44772 11 5 11V10ZM3.75 13.3333L4.3047 12.5013L3.75 13.3333ZM16.25 13.3333L16.8047 14.1654L16.8047 14.1654L16.25 13.3333ZM17.5 13.9549C18.0523 13.9549 18.5 13.5071 18.5 12.9549C18.5 12.4026 18.0523 11.9549 17.5 11.9549V13.9549ZM2.5 11.9549C1.94772 11.9549 1.5 12.4026 1.5 12.9549C1.5 13.5071 1.94772 13.9549 2.5 13.9549V11.9549ZM8.5 5C8.5 4.44772 8.05228 4 7.5 4C6.94772 4 6.5 4.44772 6.5 5H8.5ZM6.5 6.66667C6.5 7.21895 6.94772 7.66667 7.5 7.66667C8.05228 7.66667 8.5 7.21895 8.5 6.66667H6.5ZM11 5C11 4.44772 10.5523 4 10 4C9.44772 4 9 4.44772 9 5H11ZM9 6.66667C9 7.21895 9.44772 7.66667 10 7.66667C10.5523 7.66667 11 7.21895 11 6.66667H9ZM13.5 5C13.5 4.44772 13.0523 4 12.5 4C11.9477 4 11.5 4.44772 11.5 5H13.5ZM11.5 6.66667C11.5 7.21895 11.9477 7.66667 12.5 7.66667C13.0523 7.66667 13.5 7.21895 13.5 6.66667H11.5ZM7.5 1.5C6.94772 1.5 6.5 1.94772 6.5 2.5C6.5 3.05228 6.94772 3.5 7.5 3.5V1.5ZM7.50833 3.5C8.06062 3.5 8.50833 3.05228 8.50833 2.5C8.50833 1.94772 8.06062 1.5 7.50833 1.5V3.5ZM10 1.5C9.44772 1.5 9 1.94772 9 2.5C9 3.05228 9.44772 3.5 10 3.5V1.5ZM10.0083 3.5C10.5606 3.5 11.0083 3.05228 11.0083 2.5C11.0083 1.94772 10.5606 1.5 10.0083 1.5V3.5ZM12.5 1.5C11.9477 1.5 11.5 1.94772 11.5 2.5C11.5 3.05228 11.9477 3.5 12.5 3.5V1.5ZM12.5083 3.5C13.0606 3.5 13.5083 3.05228 13.5083 2.5C13.5083 1.94772 13.0606 1.5 12.5083 1.5V3.5ZM4.16667 11H15.8333V9H4.16667V11ZM16.5 11.6667V17.5H18.5V11.6667H16.5ZM17.5 16.5H2.5V18.5H17.5V16.5ZM3.5 17.5V11.6667H1.5V17.5H3.5ZM15.8333 11C16.2015 11 16.5 11.2985 16.5 11.6667H18.5C18.5 10.1939 17.3061 9 15.8333 9V11ZM4.16667 9C2.69391 9 1.5 10.1939 1.5 11.6667H3.5C3.5 11.2985 3.79848 11 4.16667 11V9ZM6.66667 7.66667H13.3333V5.66667H6.66667V7.66667ZM14 8.33333V10H16V8.33333H14ZM15 9H5V11H15V9ZM6 10V8.33333H4V10H6ZM13.3333 7.66667C13.7015 7.66667 14 7.96514 14 8.33333H16C16 6.86057 14.8061 5.66667 13.3333 5.66667V7.66667ZM6.66667 5.66667C5.19391 5.66667 4 6.86057 4 8.33333H6C6 7.96514 6.29848 7.66667 6.66667 7.66667V5.66667ZM3.1953 14.1654C4.28814 14.8939 5.71186 14.8939 6.8047 14.1654L5.6953 12.5013C5.27426 12.782 4.72574 12.782 4.3047 12.5013L3.1953 14.1654ZM13.1953 14.1654C14.2881 14.8939 15.7119 14.8939 16.8047 14.1654L15.6953 12.5013C15.2743 12.782 14.7257 12.782 14.3047 12.5013L13.1953 14.1654ZM8.1953 14.1654C9.28814 14.8939 10.7119 14.8939 11.8047 14.1654L10.6953 12.5013C10.2743 12.782 9.72574 12.782 9.3047 12.5013L8.1953 14.1654ZM11.8047 14.1654C12.2257 13.8847 12.7743 13.8847 13.1953 14.1654L14.3047 12.5013C13.2119 11.7727 11.7881 11.7727 10.6953 12.5013L11.8047 14.1654ZM9.3047 12.5013C8.21186 11.7727 6.78814 11.7727 5.6953 12.5013L6.8047 14.1654C7.22574 13.8847 7.77426 13.8847 8.1953 14.1654L9.3047 12.5013ZM16.8047 14.1654C17.0153 14.025 17.2573 13.9549 17.5 13.9549V11.9549C16.8712 11.9549 16.2417 12.137 15.6953 12.5013L16.8047 14.1654ZM4.3047 12.5013C3.75834 12.137 3.12879 11.9549 2.5 11.9549V13.9549C2.74274 13.9549 2.98472 14.025 3.1953 14.1654L4.3047 12.5013ZM6.5 5V6.66667H8.5V5H6.5ZM9 5V6.66667H11V5H9ZM11.5 5V6.66667H13.5V5H11.5ZM7.5 3.5H7.50833V1.5H7.5V3.5ZM10 3.5H10.0083V1.5H10V3.5ZM12.5 3.5H12.5083V1.5H12.5V3.5Z" fill="#94A3B8"/>
</svg>
