<svg width="20" height="20" viewBox="0 0 20 20" fill="none" xmlns="http://www.w3.org/2000/svg">
<path d="M7.5 2.5V4.16667M12.5 2.5V4.16667M7.5 15.8333V17.5M12.5 15.8333V17.5M4.16667 7.5H2.5M4.16667 12.5H2.5M17.5 7.5H15.8333M17.5 12.5H15.8333M5.83333 15.8333H14.1667C15.0871 15.8333 15.8333 15.0871 15.8333 14.1667V5.83333C15.8333 4.91286 15.0871 4.16667 14.1667 4.16667H5.83333C4.91286 4.16667 4.16667 4.91286 4.16667 5.83333V14.1667C4.16667 15.0871 4.91286 15.8333 5.83333 15.8333ZM7.5 7.5H12.5V12.5H7.5V7.5Z" stroke="#94A3B8" stroke-width="2" stroke-linecap="round" stroke-linejoin="round"/>
</svg>
