<svg width="20" height="20" viewBox="0 0 20 20" fill="none" xmlns="http://www.w3.org/2000/svg">
<path d="M16.4773 7.95455C17.0227 7.95455 17.5 7.47727 17.5 6.93182V3.52273C17.5 2.97727 17.0227 2.5 16.4773 2.5H3.52273C2.97727 2.5 2.5 2.97727 2.5 3.52273V6.86364C2.5 7.47727 2.97727 7.95455 3.52273 7.95455H5.90909V10C5.90909 10.4091 6.18182 10.6818 6.59091 10.6818H12.7273V12.0455H3.52273C2.97727 12.0455 2.5 12.5227 2.5 13.0682V16.4091C2.5 17.0227 2.97727 17.5 3.52273 17.5H16.4773C17.0227 17.5 17.5 17.0227 17.5 16.4773V13.1364C17.5 12.5227 17.0227 12.1136 16.4773 12.1136H14.0909V10.0682C14.0909 9.65909 13.8182 9.38636 13.4091 9.38636H7.27273V7.95455H16.4773ZM7.95455 4.54545H12.0455C12.4545 4.54545 12.7273 4.81818 12.7273 5.22727C12.7273 5.63636 12.4545 5.90909 12.0455 5.90909H7.95455C7.54545 5.90909 7.27273 5.63636 7.27273 5.22727C7.27273 4.81818 7.54545 4.54545 7.95455 4.54545ZM12.0455 15.4545H7.95455C7.54545 15.4545 7.27273 15.1818 7.27273 14.7727C7.27273 14.3636 7.54545 14.0909 7.95455 14.0909H12.0455C12.4545 14.0909 12.7273 14.3636 12.7273 14.7727C12.7273 15.1818 12.4545 15.4545 12.0455 15.4545Z" fill="#94A3B8"/>
</svg>
