<svg width="20" height="20" viewBox="0 0 20 20" fill="none" xmlns="http://www.w3.org/2000/svg">
<path fill-rule="evenodd" clip-rule="evenodd" d="M2.52502 4.13333C2.52502 2.95513 3.48015 2 4.65836 2H15.325C16.5032 2 17.4584 2.95513 17.4584 4.13333V12.6667C17.4584 13.8449 16.5032 14.8 15.325 14.8H12.9579L13.0882 15.3213L13.946 16.1791C14.251 16.4841 14.3423 16.9429 14.1772 17.3415C14.0121 17.7401 13.6232 18 13.1917 18H6.79172C6.3603 18 5.97135 17.7401 5.80625 17.3415C5.64115 16.9429 5.73241 16.4841 6.03748 16.1791L6.89523 15.3213L7.02556 14.8H4.65836C3.48015 14.8 2.52502 13.8449 2.52502 12.6667V4.13333ZM8.68108 11.6C8.66537 11.5997 8.64971 11.5997 8.6341 11.6H4.65836V4.13333H15.325V11.6H11.3494C11.3337 11.5997 11.3181 11.5997 11.3024 11.6H8.68108Z" fill="#94A3B8"/>
</svg>
