<svg width="20" height="20" viewBox="0 0 20 20" fill="none" xmlns="http://www.w3.org/2000/svg">
<path d="M16.7857 2.5H6.42857C6 2.5 5.71429 2.78571 5.71429 3.21429V6.07143H3.21429C2.78571 6.07143 2.5 6.35714 2.5 6.78571V16.7857C2.5 17.2143 2.78571 17.5 3.21429 17.5H9.64286H16.7857C17.2143 17.5 17.5 17.2143 17.5 16.7857V3.21429C17.5 2.78571 17.2143 2.5 16.7857 2.5ZM6.78571 15.3571H6.07143C5.64286 15.3571 5.35714 15.0714 5.35714 14.6429C5.35714 14.2143 5.64286 13.9286 6.07143 13.9286H6.78571C7.21429 13.9286 7.5 14.2143 7.5 14.6429C7.5 15.0714 7.21429 15.3571 6.78571 15.3571ZM16.0714 16.0714H10.3571V6.78571C10.3571 6.35714 10.0714 6.07143 9.64286 6.07143H7.14286V3.92857H16.0714V16.0714Z" fill="#94A3B8"/>
<path d="M11.4286 15.357H12.1429C12.5714 15.357 12.8572 15.0713 12.8572 14.6428C12.8572 14.2142 12.5714 13.9285 12.1429 13.9285H11.4286C11 13.9285 10.7143 14.2142 10.7143 14.6428C10.7143 15.0713 11 15.357 11.4286 15.357Z" fill="#94A3B8"/>
</svg>
