<svg width="20" height="20" viewBox="0 0 20 20" fill="none" xmlns="http://www.w3.org/2000/svg">
<path d="M5.83333 7.91675C5.83333 4.46497 8.63155 1.66675 12.0833 1.66675C15.5351 1.66675 18.3333 4.46497 18.3333 7.91675C18.3333 11.3685 15.5351 14.1667 12.0833 14.1667C10.6545 14.1667 9.33771 13.6873 8.28497 12.8805L6.79516 14.3703L7.98302 15.5582C8.30846 15.8836 8.30846 16.4113 7.98302 16.7367C7.65758 17.0621 7.12995 17.0621 6.80451 16.7367L5.61665 15.5488L3.85026 17.3152C3.52483 17.6407 2.99719 17.6407 2.67175 17.3152C2.34631 16.9898 2.34631 16.4622 2.67175 16.1367L4.43814 14.3703L3.26897 13.2012C2.94354 12.8757 2.94354 12.3481 3.26897 12.0226C3.59441 11.6972 4.12205 11.6972 4.44749 12.0226L5.61665 13.1918L7.10821 11.7003C6.30828 10.65 5.83333 9.33884 5.83333 7.91675Z" fill="#94A3B8"/>
</svg>
