<svg width="20" height="20" viewBox="0 0 20 20" fill="none" xmlns="http://www.w3.org/2000/svg">
<path fill-rule="evenodd" clip-rule="evenodd" d="M3.15002 2.9999C3.15002 2.53046 3.53058 2.1499 4.00002 2.1499H17C17.4695 2.1499 17.85 2.53046 17.85 2.9999V5.9999C17.85 6.22534 17.7605 6.44154 17.6011 6.60094L12.85 11.352V13.4999C12.85 13.7253 12.7605 13.9415 12.6011 14.1009L9.60107 17.1009C9.35797 17.344 8.99237 17.4168 8.67474 17.2852C8.35712 17.1536 8.15002 16.8437 8.15002 16.4999V11.352L3.39898 6.60094C3.23958 6.44154 3.15002 6.22534 3.15002 5.9999V2.9999ZM4.85002 3.8499V5.64782L9.60107 10.3989C9.76047 10.5583 9.85002 10.7745 9.85002 10.9999V14.4478L11.15 13.1478V10.9999C11.15 10.7745 11.2396 10.5583 11.399 10.3989L16.15 5.64782V3.8499H4.85002Z" fill="#94A3B8"/>
</svg>
