<svg width="20" height="20" viewBox="0 0 20 20" fill="none" xmlns="http://www.w3.org/2000/svg">
<path d="M4 10.3125V14.375C4 15.2725 4.72754 16 5.625 16H15.375C16.2725 16 17 15.2725 17 14.375V10.3125H14.899C14.6836 10.3125 14.4769 10.3981 14.3245 10.5505L12.363 12.512C12.2106 12.6644 12.0039 12.75 11.7885 12.75H9.21154C8.99606 12.75 8.7894 12.6644 8.63703 12.512L6.67547 10.5505C6.52311 10.3981 6.31644 10.3125 6.10095 10.3125H4Z" fill="#94A3B8"/>
<path d="M4 10.3125V9.4625C3.53056 9.4625 3.15 9.84306 3.15 10.3125H4ZM6.67547 10.5505L7.27651 9.94944L7.27647 9.94939L6.67547 10.5505ZM8.63703 12.512L8.03599 13.1131L8.03603 13.1131L8.63703 12.512ZM17 10.3125H17.85C17.85 9.84306 17.4694 9.4625 17 9.4625V10.3125ZM7.25 2.15H5.625V3.85H7.25V2.15ZM5.625 2.15C4.25809 2.15 3.15 3.25809 3.15 4.625H4.85C4.85 4.19698 5.19698 3.85 5.625 3.85V2.15ZM3.15 4.625V14.375H4.85V4.625H3.15ZM3.15 14.375C3.15 15.7419 4.2581 16.85 5.625 16.85V15.15C5.19697 15.15 4.85 14.803 4.85 14.375H3.15ZM5.625 16.85H15.375V15.15H5.625V16.85ZM15.375 16.85C16.7419 16.85 17.85 15.7419 17.85 14.375H16.15C16.15 14.803 15.803 15.15 15.375 15.15V16.85ZM17.85 14.375V4.625H16.15V14.375H17.85ZM17.85 4.625C17.85 3.2581 16.7419 2.15 15.375 2.15V3.85C15.803 3.85 16.15 4.19697 16.15 4.625H17.85ZM15.375 2.15H13.75V3.85H15.375V2.15ZM13.75 2.15H7.25V3.85H13.75V2.15ZM4 11.1625H6.10095V9.4625H4V11.1625ZM6.10095 11.1625C6.09092 11.1625 6.08144 11.1585 6.07448 11.1516L7.27647 9.94939C6.96477 9.63775 6.54195 9.4625 6.10095 9.4625V11.1625ZM6.07443 11.1515L8.03599 13.1131L9.23807 11.911L7.27651 9.94944L6.07443 11.1515ZM8.03603 13.1131C8.34773 13.4248 8.77054 13.6 9.21154 13.6V11.9C9.22158 11.9 9.23106 11.904 9.23802 11.9109L8.03603 13.1131ZM9.21154 13.6H11.7885V11.9H9.21154V13.6ZM11.7885 13.6C12.2294 13.6 12.6523 13.4248 12.964 13.1131L11.7619 11.911C11.769 11.9039 11.7785 11.9 11.7885 11.9V13.6ZM12.964 13.1131L14.9256 11.1515L13.7235 9.94944L11.7619 11.911L12.964 13.1131ZM14.9256 11.1515C14.9185 11.1586 14.909 11.1625 14.899 11.1625V9.4625C14.4581 9.4625 14.0352 9.63772 13.7235 9.94944L14.9256 11.1515ZM14.899 11.1625H17V9.4625H14.899V11.1625ZM3.15 10.3125V14.375H4.85V10.3125H3.15ZM17.85 14.375V10.3125H16.15V14.375H17.85Z" fill="#94A3B8"/>
</svg>
