<svg width="20" height="20" viewBox="0 0 20 20" fill="none" xmlns="http://www.w3.org/2000/svg">
<path d="M17.5 7.5C17.5 7.96024 17.1269 8.33333 16.6667 8.33333C16.2064 8.33333 15.8333 7.96024 15.8333 7.5V5.3452L12.8861 8.29241C13.6895 9.34391 14.1667 10.6579 14.1667 12.0833C14.1667 15.5351 11.3684 18.3333 7.91666 18.3333C4.46488 18.3333 1.66666 15.5351 1.66666 12.0833C1.66666 8.63155 4.46488 5.83333 7.91666 5.83333C9.34211 5.83333 10.6561 6.31053 11.7076 7.1139L14.6548 4.16667H12.5C12.0398 4.16667 11.6667 3.79357 11.6667 3.33333C11.6667 2.8731 12.0398 2.5 12.5 2.5H16.4583C17.0336 2.5 17.5 2.96637 17.5 3.54167V7.5Z" fill="currentColor"/>
</svg>
