<svg width="20" height="20" viewBox="0 0 20 20" fill="none" xmlns="http://www.w3.org/2000/svg">
<path d="M4.16667 9.99992H15.8333M4.16667 9.99992C3.24619 9.99992 2.5 9.25373 2.5 8.33325V4.99992C2.5 4.07944 3.24619 3.33325 4.16667 3.33325H15.8333C16.7538 3.33325 17.5 4.07944 17.5 4.99992V8.33325C17.5 9.25373 16.7538 9.99992 15.8333 9.99992M4.16667 9.99992C3.24619 9.99992 2.5 10.7461 2.5 11.6666V14.9999C2.5 15.9204 3.24619 16.6666 4.16667 16.6666H15.8333C16.7538 16.6666 17.5 15.9204 17.5 14.9999V11.6666C17.5 10.7461 16.7538 9.99992 15.8333 9.99992M14.1667 6.66658H14.175M14.1667 13.3332H14.175" stroke="#94A3B8" stroke-width="2" stroke-linecap="round" stroke-linejoin="round"/>
</svg>
