<svg width="20" height="20" viewBox="0 0 20 20" fill="none" xmlns="http://www.w3.org/2000/svg">
<path d="M14.1667 14.3333H14.175M4.16667 17.6667H15.8333C16.7538 17.6667 17.5 16.9205 17.5 16V12.6667C17.5 11.7462 16.7538 11 15.8333 11H4.16667C3.24619 11 2.5 11.7462 2.5 12.6667V16C2.5 16.9205 3.24619 17.6667 4.16667 17.6667Z" stroke="#94A3B8" stroke-width="2" stroke-linecap="round" stroke-linejoin="round"/>
<path fill-rule="evenodd" clip-rule="evenodd" d="M2 5C2 3.89543 2.89543 3 4 3H16C17.1046 3 18 3.89543 18 5V7C18 8.10457 17.1046 9 16 9H4C2.89543 9 2 8.10457 2 7V5ZM16 6C16 6.55229 15.5523 7 15 7C14.4477 7 14 6.55229 14 6C14 5.44771 14.4477 5 15 5C15.5523 5 16 5.44771 16 6Z" fill="#94A3B8"/>
</svg>
