<svg width="20" height="20" viewBox="0 0 20 20" fill="none" xmlns="http://www.w3.org/2000/svg">
<path d="M14.1667 6.66658H14.175M4.16667 9.99992H15.8333C16.7538 9.99992 17.5 9.25373 17.5 8.33325V4.99992C17.5 4.07944 16.7538 3.33325 15.8333 3.33325H4.16667C3.24619 3.33325 2.5 4.07944 2.5 4.99992V8.33325C2.5 9.25373 3.24619 9.99992 4.16667 9.99992Z" stroke="#94A3B8" stroke-width="2" stroke-linecap="round" stroke-linejoin="round"/>
<path fill-rule="evenodd" clip-rule="evenodd" d="M2 14C2 12.8954 2.89543 12 4 12H16C17.1046 12 18 12.8954 18 14V16C18 17.1046 17.1046 18 16 18H4C2.89543 18 2 17.1046 2 16V14ZM16 15C16 15.5523 15.5523 16 15 16C14.4477 16 14 15.5523 14 15C14 14.4477 14.4477 14 15 14C15.5523 14 16 14.4477 16 15Z" fill="#94A3B8"/>
</svg>
