<svg width="20" height="20" viewBox="0 0 20 20" fill="none" xmlns="http://www.w3.org/2000/svg">
<path d="M15 2.5L16 2.5C16 2.08327 15.7416 1.71023 15.3514 1.56378C14.9613 1.41734 14.5212 1.52819 14.247 1.84199L15 2.5ZM7.36007 11.6667L7.36007 12.6667H7.36007V11.6667ZM15 14.1667L14.247 14.8247C14.5212 15.1385 14.9613 15.2493 15.3514 15.1029C15.7416 14.9564 16 14.5834 16 14.1667H15ZM5.83331 11.6667L5.83331 12.6667L5.83331 11.6667ZM10.1667 4.90182C10.1667 4.34953 9.71895 3.90182 9.16667 3.90182C8.61438 3.90182 8.16667 4.34953 8.16667 4.90182H10.1667ZM6.31907 16.5267L5.37491 16.8563L5.37733 16.8631L6.31907 16.5267ZM15 9.83333C14.4477 9.83333 14 10.281 14 10.8333C14 11.3856 14.4477 11.8333 15 11.8333V9.83333ZM15 4.83333C14.4477 4.83333 14 5.28105 14 5.83333C14 6.38562 14.4477 6.83333 15 6.83333V4.83333ZM4.53039 11.4024L4.92159 10.4821L4.53039 11.4024ZM7.36007 4H5.83333V6H7.36007V4ZM14.247 1.84199C13.7626 2.39632 12.8882 2.94446 11.6628 3.35324C10.4531 3.75679 8.97262 4 7.36007 4V6C9.16472 6 10.8612 5.729 12.2957 5.25045C13.7146 4.77713 14.9515 4.07527 15.753 3.15801L14.247 1.84199ZM7.36007 12.6667C8.97262 12.6667 10.4531 12.9099 11.6628 13.3134C12.8882 13.7222 13.7626 14.2703 14.247 14.8247L15.753 13.5087C14.9515 12.5914 13.7146 11.8895 12.2957 11.4162C10.8612 10.9377 9.16472 10.6667 7.36007 10.6667V12.6667ZM5.83331 12.6667L7.36007 12.6667L7.36007 10.6667L5.83332 10.6667L5.83331 12.6667ZM16 14.1667L16 2.5L14 2.5L14 14.1667H16ZM3.5 8.33333C3.5 7.04467 4.54467 6 5.83333 6V4C3.4401 4 1.5 5.9401 1.5 8.33333H3.5ZM8.16667 4.90182V16.0335H10.1667V4.90182H8.16667ZM7.70015 16.5C7.50299 16.5 7.32712 16.3761 7.26081 16.1904L5.37733 16.8631C5.72792 17.8447 6.65777 18.5 7.70015 18.5V16.5ZM8.16667 16.0335C8.16667 16.2911 7.9578 16.5 7.70015 16.5V18.5C9.06237 18.5 10.1667 17.3957 10.1667 16.0335H8.16667ZM16.5 8.33333C16.5 9.16176 15.8284 9.83333 15 9.83333V11.8333C16.933 11.8333 18.5 10.2663 18.5 8.33333H16.5ZM15 6.83333C15.8284 6.83333 16.5 7.50491 16.5 8.33333H18.5C18.5 6.40034 16.933 4.83333 15 4.83333V6.83333ZM7.26321 16.1972L5.47453 11.0728L3.58626 11.732L5.37493 16.8563L7.26321 16.1972ZM1.5 8.33333C1.5 10.1271 2.58968 11.664 4.1392 12.3227L4.92159 10.4821C4.08415 10.1261 3.5 9.29679 3.5 8.33333H1.5ZM4.1392 12.3227C4.6609 12.5445 5.23412 12.6667 5.83331 12.6667L5.83332 10.6667C5.50784 10.6667 5.20037 10.6006 4.92159 10.4821L4.1392 12.3227Z" fill="#94A3B8"/>
</svg>
