<svg width="20" height="20" viewBox="0 0 20 20" fill="none" xmlns="http://www.w3.org/2000/svg">
<path d="M16.5455 3H3.45455C2.65455 3 2 3.65455 2 4.45455V14.6364C2 15.4364 2.65455 16.0909 3.45455 16.0909H16.5455C17.3455 16.0909 18 15.4364 18 14.6364V4.45455C18 3.65455 17.3455 3 16.5455 3ZM6.14545 12.3091C6 12.3818 5.78182 12.4545 5.63636 12.4545C5.41818 12.4545 5.2 12.3818 5.05455 12.2364C4.76364 11.9455 4.83636 11.5091 5.12727 11.2182L7.09091 9.54545L5.12727 7.94545C4.83636 7.65455 4.76364 7.21818 5.05455 6.92727C5.34545 6.63636 5.78182 6.56364 6.07273 6.85455L8.61818 9.03636C8.76364 9.18182 8.83636 9.4 8.83636 9.61818C8.83636 9.83636 8.76364 10.0545 8.61818 10.2L6.14545 12.3091ZM14.3636 13.1818H9.63636C9.2 13.1818 8.90909 12.8909 8.90909 12.4545C8.90909 12.0182 9.2 11.7273 9.63636 11.7273H14.3636C14.8 11.7273 15.0909 12.0182 15.0909 12.4545C15.0909 12.8909 14.8 13.1818 14.3636 13.1818Z" fill="#94A3B8"/>
</svg>
