<svg width="20" height="20" viewBox="0 0 20 20" fill="none" xmlns="http://www.w3.org/2000/svg">
<path d="M4.33337 13.3334C4.33337 12.7811 3.88566 12.3334 3.33337 12.3334C2.78109 12.3334 2.33337 12.7811 2.33337 13.3334L4.33337 13.3334ZM17.6667 13.3334C17.6667 12.7811 17.219 12.3334 16.6667 12.3334C16.1144 12.3334 15.6667 12.7811 15.6667 13.3334L17.6667 13.3334ZM12.6263 7.37385C13.0168 7.76438 13.65 7.76438 14.0405 7.37385C14.431 6.98333 14.431 6.35016 14.0405 5.95964L12.6263 7.37385ZM10 3.33341L10.7071 2.62631C10.5196 2.43877 10.2653 2.33341 10 2.33341C9.73482 2.33341 9.48047 2.43877 9.29293 2.62631L10 3.33341ZM5.9596 5.95964C5.56908 6.35017 5.56908 6.98333 5.9596 7.37385C6.35012 7.76438 6.98329 7.76438 7.37381 7.37385L5.9596 5.95964ZM9.00004 13.3334C9.00004 13.8857 9.44775 14.3334 10 14.3334C10.5523 14.3334 11 13.8857 11 13.3334L9.00004 13.3334ZM14.1667 15.6667L5.83337 15.6667L5.83337 17.6667L14.1667 17.6667L14.1667 15.6667ZM4.33337 14.1667L4.33337 13.3334L2.33337 13.3334L2.33337 14.1667L4.33337 14.1667ZM15.6667 13.3334L15.6667 14.1667L17.6667 14.1667L17.6667 13.3334L15.6667 13.3334ZM14.1667 17.6667C16.0997 17.6667 17.6667 16.0997 17.6667 14.1667L15.6667 14.1667C15.6667 14.9952 14.9951 15.6667 14.1667 15.6667L14.1667 17.6667ZM5.83337 15.6667C5.00495 15.6667 4.33337 14.9952 4.33337 14.1667L2.33337 14.1667C2.33337 16.0997 3.90038 17.6667 5.83337 17.6667L5.83337 15.6667ZM14.0405 5.95964L10.7071 2.62631L9.29293 4.04052L12.6263 7.37385L14.0405 5.95964ZM9.29293 2.62631L5.9596 5.95964L7.37381 7.37385L10.7071 4.04052L9.29293 2.62631ZM9.00004 3.33341L9.00004 13.3334L11 13.3334L11 3.33341L9.00004 3.33341Z" fill="#94A3B8"/>
</svg>
