<svg width="20" height="20" viewBox="0 0 20 20" fill="none" xmlns="http://www.w3.org/2000/svg">
<path d="M2.5 17.5H1.5C1.5 18.0523 1.94772 18.5 2.5 18.5V17.5ZM12.5 17.5V18.5C13.0523 18.5 13.5 18.0523 13.5 17.5H12.5ZM16 7.5C16 6.94772 15.5523 6.5 15 6.5C14.4477 6.5 14 6.94772 14 7.5H16ZM14 12.5C14 13.0523 14.4477 13.5 15 13.5C15.5523 13.5 16 13.0523 16 12.5H14ZM17.5 11C18.0523 11 18.5 10.5523 18.5 10C18.5 9.44772 18.0523 9 17.5 9V11ZM12.5 9C11.9477 9 11.5 9.44772 11.5 10C11.5 10.5523 11.9477 11 12.5 11V9ZM9.83333 5.83333C9.83333 7.122 8.78866 8.16667 7.5 8.16667V10.1667C9.89323 10.1667 11.8333 8.22657 11.8333 5.83333H9.83333ZM7.5 8.16667C6.21134 8.16667 5.16667 7.122 5.16667 5.83333H3.16667C3.16667 8.22657 5.10677 10.1667 7.5 10.1667V8.16667ZM5.16667 5.83333C5.16667 4.54467 6.21134 3.5 7.5 3.5V1.5C5.10677 1.5 3.16667 3.4401 3.16667 5.83333H5.16667ZM7.5 3.5C8.78866 3.5 9.83333 4.54467 9.83333 5.83333H11.8333C11.8333 3.4401 9.89323 1.5 7.5 1.5V3.5ZM3.5 16.6667C3.5 14.4575 5.29086 12.6667 7.5 12.6667V10.6667C4.18629 10.6667 1.5 13.353 1.5 16.6667H3.5ZM7.5 12.6667C9.70914 12.6667 11.5 14.4575 11.5 16.6667H13.5C13.5 13.353 10.8137 10.6667 7.5 10.6667V12.6667ZM1.5 16.6667V17.5H3.5V16.6667H1.5ZM2.5 18.5H12.5V16.5H2.5V18.5ZM13.5 17.5V16.6667H11.5V17.5H13.5ZM14 7.5V10H16V7.5H14ZM14 10V12.5H16V10H14ZM17.5 9H15V11H17.5V9ZM15 9H12.5V11H15V9Z" fill="#94A3B8"/>
</svg>
